<svg width="420" height="416" viewBox="0 0 420 416" fill="none" xmlns="http://www.w3.org/2000/svg">
<g id="Illustration/Order Placed">
<rect width="533" height="524" fill="#FCFFE7"/>
<path id="Blob" fill-rule="evenodd" clip-rule="evenodd" d="M330.04 108C330.875 77.5275 291.646 25.5066 227.379 34.5704C157.016 44.4938 105.961 123.978 116.132 212.815L116.519 216.227C122.763 271.715 124.849 315.424 114.061 376.972C105.995 422.989 163.352 524.867 290.227 508.751C417.102 492.634 486.792 343.067 426.919 272.495C346.95 178.232 328.213 174.695 330.04 108Z" fill="#2B3467"/>
<path id="Path" fill-rule="evenodd" clip-rule="evenodd" d="M254.692 196.843C252.516 191.336 248.392 186.839 244.823 182.085C235.279 169.376 229.361 154.065 227.912 138.332C227.138 129.934 230.076 88.941 245.616 79.3244C237.944 77.0021 230.076 74.5807 223.783 69.6808C217.49 64.781 213.037 56.7703 214.73 49.0558C217.293 37.3797 232.718 32.3669 244.224 36.2046C255.73 40.0423 264.007 49.7512 271.665 59.0247C278.988 58.4183 280.805 47.811 287.494 44.8176C292.005 42.7985 297.25 44.8686 301.623 47.1622C314.35 53.8368 326.271 62.9895 333.001 75.533C339.731 88.0765 340.313 104.45 331.739 115.854C334.862 112.339 341.335 116.711 340.965 121.365C340.595 126.018 336.414 129.395 332.422 131.922C328.429 134.449 323.969 137.069 322.391 141.472C318.421 152.554 312.112 162.822 303.982 171.435C299.014 176.697 293.312 181.431 289.627 187.63C285.943 193.828 284.712 202.158 289.01 207.962C294.724 201.983 304.574 200.302 312.004 204.037C319.434 207.773 323.813 216.607 322.228 224.662C332.581 225.536 341.883 233.599 344.06 243.588C365.052 264.392 382.199 288.935 394.415 315.665C402.169 332.632 407.928 350.4 413.669 368.124C415.915 375.059 418.188 382.324 416.937 389.497C414.396 404.064 398.322 412.646 383.392 414.37C364.802 416.517 345.432 411.186 330.678 399.863C322.797 423.957 314.93 450.275 323.889 474.002C325.808 479.083 321.971 484.854 316.959 487.112C311.947 489.37 306.178 489.04 300.678 488.665C269.852 486.564 239.025 484.464 208.199 482.363C201.739 481.923 192.907 478.187 195.194 472.231C200.3 458.93 201.759 444.295 199.377 430.273C197.559 439.717 194.408 448.912 190.041 457.511C190.041 457.511 174.654 488.665 159.308 472.677C150.562 455.303 150.185 434.959 152.767 415.741C155.349 396.523 160.686 377.718 162.771 358.442C164.802 339.663 163.723 320.661 165.71 301.878C167.696 283.094 173.187 263.859 186.228 249.993C196.546 239.022 206.864 228.052 217.182 217.081C219.96 214.127 222.888 211.072 226.73 209.687C230.572 208.301 235.593 209.182 237.569 212.705C240.005 209.726 242.854 206.516 246.72 206.117C250.586 205.719 254.622 210.375 252.139 213.316C256.588 209.344 256.869 202.35 254.692 196.843Z" fill="#FCFFE7"/>
<path id="Path_2" fill-rule="evenodd" clip-rule="evenodd" d="M336.953 243.588C357.946 264.392 375.092 288.935 387.308 315.665C395.062 332.631 400.821 350.4 406.562 368.124C408.808 375.059 411.082 382.324 409.83 389.497C407.29 404.064 391.215 412.646 376.285 414.37C357.695 416.517 339.517 410.073 324.764 398.75C316.883 422.844 307.823 450.275 316.782 474.002C317.594 476.152 319.712 478.584 318.81 480.663C317.58 483.497 312.743 485.81 309.852 487.112C309.091 487.455 311.123 480.367 311.034 469.963C310.884 452.259 303.333 390.75 321.106 394.813C364.515 404.737 397.243 403.198 397.93 392.611C401.414 338.863 334.776 233.599 336.953 243.588Z" fill="#E7EAEE"/>
<path id="Combined Shape" fill-rule="evenodd" clip-rule="evenodd" d="M249.718 196.843C248.011 192.526 245.108 188.829 242.214 185.143C241.416 184.127 240.619 183.112 239.848 182.085C230.305 169.376 224.387 154.065 222.937 138.332C222.163 129.934 225.102 88.941 240.642 79.3244C232.97 77.0021 225.102 74.5807 218.809 69.6808C212.516 64.781 208.062 56.7703 209.756 49.0558C212.319 37.3797 227.744 32.3669 239.25 36.2046C250.756 40.0423 259.032 49.7512 266.69 59.0247C270.724 58.6907 273.087 55.3227 275.514 51.8641C277.493 49.0433 279.515 46.1622 282.519 44.8176C287.03 42.7985 292.275 44.8686 296.648 47.1622C309.376 53.8368 321.297 62.9895 328.026 75.533C334.756 88.0765 335.339 104.45 326.764 115.854C329.887 112.339 336.36 116.711 335.99 121.365C335.62 126.018 331.439 129.395 327.447 131.922C327.234 132.057 327.021 132.191 326.806 132.327C322.988 134.733 318.91 137.303 317.417 141.472C313.446 152.554 307.137 162.822 299.007 171.435C297.685 172.835 296.312 174.198 294.938 175.56L294.937 175.561L294.937 175.561C291.147 179.321 287.357 183.081 284.653 187.63C280.969 193.828 279.738 202.158 284.035 207.962C289.75 201.983 299.599 200.302 307.029 204.037C314.459 207.773 318.839 216.607 317.253 224.662C327.606 225.536 336.908 233.599 339.085 243.588C360.078 264.392 377.224 288.935 389.44 315.665C397.194 332.632 402.953 350.4 408.694 368.124C410.94 375.059 413.214 382.324 411.962 389.497C409.422 404.064 393.348 412.646 378.417 414.37C359.827 416.517 340.457 411.186 325.703 399.863C317.822 423.957 309.955 450.275 318.914 474.002C319.708 476.102 319.517 478.321 318.667 480.36C312.832 467.897 311.764 453.672 313.324 440.032C314.898 426.281 319.01 412.952 323.104 399.713C323.782 397.517 320.236 396.938 317.923 396.627C313.817 396.073 310.838 392.634 308.27 389.436L297.829 376.433C291.091 368.041 283.321 359.034 272.572 357.409C269.591 356.958 266.575 357.122 263.554 357.287C261.713 357.387 259.871 357.487 258.034 357.448C250.901 357.298 243.829 354.99 238.021 350.915C236.629 349.938 235.215 348.714 234.929 347.056C234.65 345.436 236.139 343.537 237.72 343.95L237.832 343.983C237.812 343.976 237.792 343.97 237.772 343.964C237.755 343.959 237.737 343.954 237.72 343.95C232.688 342.457 227.895 340.184 223.575 337.241C222.778 336.698 221.966 336.096 221.556 335.234C220.669 333.37 222.137 331.086 224.071 330.3C226.005 329.513 228.195 329.8 230.266 330.1C227.796 329.606 225.249 329.081 223.179 327.667C221.109 326.253 219.626 323.7 220.267 321.304C220.907 318.907 224.267 317.424 226.161 319.059C225.335 316.639 227.126 313.959 229.47 312.861C231.813 311.763 234.529 311.85 237.122 311.99C247.998 312.58 258.844 313.721 269.601 315.407L268.025 293.652C267.961 292.765 267.883 291.836 267.394 291.087C266.767 290.129 265.607 289.672 264.521 289.276C242.624 281.302 220.099 274.998 197.214 270.44L202.341 364.867C202.498 367.762 203.318 371.435 206.228 371.906C224.309 374.831 242.044 379.811 258.97 386.713C261.347 387.682 263.085 384.41 263.523 381.917L267.86 357.204C268.463 367.651 266.943 378.212 263.415 388.084C266.113 388.707 267.674 385.204 268.105 382.513L272.022 358.092C272.689 366.749 271.919 375.511 269.752 383.927C269.254 385.86 268.498 387.997 266.66 388.838C265.104 389.55 263.282 389.088 261.635 388.616L204.364 372.196C203.463 371.938 202.523 371.658 201.856 371.01C200.863 370.046 200.727 368.541 200.65 367.171L195.884 282.028C195.575 276.508 195.882 270.976 196.188 265.456L197.759 237.189C188.541 269.113 187.671 302.953 191.554 335.918C195.438 368.883 203.967 401.142 213.314 433.03C209.381 426.417 206.509 419.196 204.836 411.715C200.264 418.147 195.468 425.479 196.772 433.22C198.963 446.221 197.566 459.789 192.77 472.095C191.677 474.902 193.643 478.139 196.335 479.563C199.028 480.986 202.221 481.057 205.278 481.094L245.974 481.591C244.851 480.19 245.257 477.866 246.789 476.912C246.379 481.261 252.052 483.308 256.453 483.896C277.248 486.677 299.352 489.285 318.464 480.818C317.19 483.519 314.768 485.858 311.984 487.112C306.972 489.37 301.203 489.04 295.704 488.665L203.224 482.363C196.764 481.923 187.932 478.187 190.219 472.231C195.325 458.93 196.784 444.295 194.402 430.273C192.585 439.717 189.433 448.912 185.066 457.511C186.857 443.152 191.754 429.175 199.336 416.777C204.733 407.952 201.624 396.723 198.852 386.793C185.727 339.78 183.692 289.811 192.953 241.916C173.189 256.12 164.938 281.323 162.593 305.28C161.613 315.297 161.451 325.383 161.289 335.462C161.064 349.491 160.838 363.508 158.408 377.308C157.298 383.613 155.731 389.843 154.166 396.069C151.692 405.906 149.222 415.731 148.558 425.82C147.521 441.574 150.938 457.247 154.334 472.677C145.588 455.303 145.211 434.959 147.792 415.741C148.977 406.922 150.742 398.189 152.507 389.457C154.588 379.163 156.668 368.871 157.796 358.442C158.819 348.984 159.053 339.47 159.287 329.955C159.518 320.578 159.749 311.201 160.735 301.878C162.722 283.094 168.213 263.859 181.254 249.993L212.208 217.081C214.986 214.127 217.914 211.072 221.755 209.687C225.597 208.301 230.619 209.182 232.594 212.705C235.03 209.726 237.88 206.516 241.746 206.117C245.612 205.719 249.647 210.375 247.165 213.316C251.613 209.344 251.894 202.35 249.718 196.843ZM318.464 480.818C318.504 480.731 318.544 480.644 318.583 480.556C318.611 480.491 318.639 480.426 318.667 480.36C318.701 480.434 318.736 480.507 318.77 480.58L318.81 480.663C318.74 480.694 318.671 480.725 318.601 480.756L318.464 480.818ZM409.849 381.529C410.896 390.108 406.217 398.734 399.274 404.033C392.332 409.333 383.443 411.662 374.674 412.254C356.211 413.501 337.34 407.278 323.376 395.339C334.095 384.537 334.694 365.561 324.676 354.127C333.295 350.185 342.108 346.189 351.557 345.167C361.006 344.146 371.376 346.611 377.519 353.744C378.568 354.963 379.476 356.292 380.384 357.62C381.498 359.252 382.612 360.882 383.985 362.304C382.795 354.57 376.663 348.11 369.322 345.092C361.981 342.075 353.63 342.142 345.863 343.84C338.095 345.538 330.779 348.775 323.526 351.991C322.147 352.603 321.115 350.651 320.891 349.18L319.591 340.657C319.055 337.144 319.112 332.546 322.479 331.256C325.008 330.287 324.344 326.494 322.671 324.393C322.39 324.041 322.09 323.688 321.787 323.33C320.28 321.555 318.698 319.692 319.097 317.506C323.34 294.285 327.606 270.972 335.155 248.578C335.389 247.884 335.673 247.132 336.317 246.765C337.186 246.27 338.284 246.698 339.159 247.184C346.232 251.113 350.458 258.133 354.676 265.138C356.164 267.61 357.652 270.08 359.262 272.412C361.748 276.01 364.595 279.34 367.444 282.672L367.444 282.673L367.444 282.673L367.444 282.673L367.444 282.673L367.444 282.673L367.445 282.673L367.445 282.674L367.445 282.674L367.445 282.674L367.445 282.674L367.445 282.674L367.445 282.675L367.446 282.675L367.446 282.675C369.56 285.148 371.675 287.622 373.642 290.206C385.774 306.139 391.726 325.303 397.69 344.507L397.69 344.508C400.41 353.268 403.133 362.037 406.447 370.511C406.581 370.855 406.717 371.199 406.853 371.543C408.135 374.795 409.427 378.073 409.849 381.529ZM314.798 331.383C316.529 331.367 318.341 331.33 319.857 330.508C321.373 329.686 322.444 327.803 321.743 326.248C321.077 324.77 319.159 324.238 317.529 324.447C316.585 324.569 315.683 324.872 314.78 325.176L314.779 325.176C314.123 325.397 313.467 325.618 312.793 325.769C309.438 326.524 306.014 325.529 302.609 324.54C298.922 323.47 295.258 322.406 291.727 323.574C294.011 319.856 293.86 315.258 293.717 310.891C293.709 310.662 293.702 310.434 293.695 310.207C292.969 287.01 298.205 263.656 308.781 242.908C304.877 245.653 302.075 249.873 301.09 254.492C300.973 255.039 300.88 255.593 300.787 256.148L300.787 256.148L300.787 256.149L300.787 256.149L300.787 256.15L300.787 256.15L300.787 256.151L300.787 256.152L300.787 256.152L300.787 256.153L300.786 256.153L300.786 256.154C300.547 257.583 300.307 259.013 299.665 260.307C297.064 265.554 289.719 265.942 283.806 265.418C278.96 264.988 273.882 264.363 269.935 261.566C267.955 260.163 266.361 258.279 264.776 256.406C262.666 253.912 260.572 251.437 257.603 250.139C252.679 247.985 247.417 249.78 242.093 251.596C237.284 253.236 232.423 254.894 227.716 253.673C225.063 252.986 223.229 256.187 222.433 258.768L218.964 270.012C217.346 263.866 219.322 256.932 223.954 252.508C221.97 251.229 222.504 248.603 223.033 246.003C223.569 243.37 224.099 240.763 222.002 239.61C215.672 236.128 214.42 227.86 213.879 220.749C205.826 223.673 201.231 232.231 199.815 240.555C198.98 245.462 198.989 250.442 198.999 255.428C199.006 258.9 199.013 262.375 198.734 265.83C223.016 270.503 246.949 276.922 270.281 285.02C271.709 285.516 273.209 286.068 274.162 287.225C275.187 288.471 275.379 290.168 275.529 291.763C276.291 299.828 277.01 308.227 274.075 315.796L274.1 292.209C274.101 290.903 273.874 289.269 272.61 288.868C270.643 288.246 269.721 291.2 269.883 293.225L271.288 310.759C271.48 313.159 271.835 315.863 273.799 317.3L238.498 313.814C234.831 313.452 230.436 313.392 228.291 316.338C228.644 319.157 232.072 320.34 234.9 320.92L257.371 325.526C250.339 326.955 242.949 325.673 236.296 323.017C235.791 322.816 235.288 322.606 234.784 322.396L234.783 322.395L234.782 322.395C232.676 321.517 230.562 320.635 228.304 320.342C225.505 319.979 222.342 320.729 220.717 322.998C230.771 329.535 242.456 333.628 254.449 334.814C254.376 336.094 252.641 336.477 251.341 336.384C247.958 336.142 244.705 335.166 241.448 334.19L241.447 334.189C239.936 333.736 238.424 333.283 236.898 332.903C232.084 331.703 226.688 331.306 222.415 333.793C232.033 341.506 244.715 344.186 256.875 346.629L236.74 346.207C240.301 352.437 248.29 354.732 255.549 355.11C257.695 355.222 259.861 355.219 262.026 355.216C267.182 355.209 272.333 355.203 277.207 356.744C286.053 359.542 292.461 366.922 298.379 373.966L309.791 387.549C311.347 389.401 314.312 389.606 316.51 388.559C318.709 387.512 320.261 385.493 321.477 383.41C323.893 379.27 325.33 374.409 324.55 369.698C323.771 364.988 320.464 360.536 315.806 359.193C307.803 356.887 302.122 349.894 298.195 342.662C296.847 340.179 295.636 337.617 294.425 335.057C292.11 330.159 289.797 325.267 286.533 320.944C285.555 319.648 284.489 318.398 283.423 317.149C280.789 314.06 278.157 310.974 276.854 307.195C283.558 313.572 289.248 320.979 293.654 329.063C294.132 329.939 294.658 330.885 295.581 331.292C296.172 331.553 296.843 331.551 297.491 331.545L314.798 331.383ZM312.953 133.621C314.573 133.414 315.854 132.22 317.012 131.087L322.65 125.575C312.236 150.942 297.366 175.468 274.824 191.504C270.247 194.76 264.806 197.758 259.245 196.781C256.332 196.269 253.719 194.699 251.402 192.889C246.578 189.12 242.76 184.24 239.496 179.101C230.279 164.594 225.161 147.544 225.239 130.44C225.317 113.335 230.638 96.2385 240.595 82.2123C240.938 81.7301 241.321 81.2241 241.887 81.032C242.46 80.837 243.089 81.0099 243.669 81.1834C264.54 87.4206 285.212 94.3029 305.643 101.817C308.877 103.006 310.224 106.749 310.812 110.094C312.022 116.984 311.7 124.131 309.873 130.889C309.453 132.441 311.333 133.828 312.953 133.621ZM299.335 82.3352C301.797 82.3568 303.514 85.5936 302.122 87.5903C300.731 89.587 297.041 89.1824 296.131 86.9334C295.111 84.4107 292.479 83.0414 289.996 81.7497C289.733 81.6126 289.471 81.4764 289.213 81.3398C280.869 76.9216 274.455 69.9059 268.072 62.9242L268.071 62.9241L268.071 62.924L268.071 62.9234C266.396 61.0919 264.724 59.2628 263.02 57.4836C259.781 54.1029 256.385 50.8687 252.844 47.7945C248.962 44.4229 244.842 41.2051 240.088 39.182C235.333 37.1588 229.836 36.4216 224.944 38.0955C227.148 38.2053 228.875 40.6745 228.19 42.7369C227.505 44.7994 224.629 45.7912 222.783 44.6014C220.938 43.4116 220.717 40.423 222.368 38.9836C217.365 40.4398 213.161 44.3299 211.38 49.1516C211.029 50.1024 210.768 51.1538 211.089 52.1147C211.27 52.6565 211.625 53.1377 211.977 53.6133C212.473 54.2853 212.961 54.9463 212.939 55.7516C212.758 62.1977 219.178 68.034 225.7 67.3539C226.978 67.2207 227.493 68.4732 228.027 69.7726C228.281 70.3925 228.541 71.0231 228.889 71.5189C229.512 72.4047 230.552 72.8982 231.547 73.3461C241.671 77.8986 252.147 81.6949 262.854 84.6913C264.095 85.0386 265.794 85.1832 266.32 84.0252C267.026 82.4713 269.078 81.6646 270.679 82.3112C272.281 82.9579 273.163 84.9496 272.554 86.5428C272.282 87.2567 273.176 87.8355 273.906 88.0948L310.381 101.06C309.708 98.406 313.137 95.7682 315.596 97.0486C318.054 98.3291 317.76 102.6 315.149 103.543L328.48 110.152L330.874 90.9186C330.985 90.0201 330.62 88.684 329.737 88.941C328.102 89.4172 326.173 88.5079 325.528 86.9557C324.882 85.4034 325.609 83.4263 327.115 82.6389C328.274 82.0329 328.706 80.5394 328.45 79.2735C328.193 78.0075 327.4 76.919 326.609 75.889C318.047 64.7472 307.202 55.2616 294.763 48.5203C291.43 46.7136 287.388 45.0855 283.943 46.6775C281.949 47.599 280.608 49.4126 279.296 51.1856L279.296 51.186L279.295 51.1869L279.295 51.188L279.294 51.1891L279.293 51.1895L279.293 51.1904L279.292 51.1915L279.291 51.1926L279.291 51.1928C279.084 51.4725 278.878 51.7512 278.67 52.0252C276.047 55.4822 272.802 58.4813 269.13 60.8413L280.752 72.4656C279.791 70.4255 281.254 67.677 283.507 67.2904C285.76 66.9038 288.083 69.0024 287.882 71.2421C287.68 73.4817 285.019 75.1472 282.869 74.378C287.723 78.2331 293.096 82.2805 299.335 82.3352ZM314.13 239.787C315.896 239.914 317.689 238.871 318.427 237.288C319.165 235.705 318.796 233.689 317.545 232.457C315.981 230.918 317.792 228.044 319.993 227.82C322.194 227.597 324.194 228.979 325.958 230.292L334.462 236.621C335.493 237.389 336.649 238.535 336.198 239.727C326.486 265.404 320.101 292.296 317.248 319.548C317.017 321.756 314.851 323.383 312.629 323.778C310.406 324.174 308.135 323.62 305.947 323.07L298.123 321.101C297.592 320.968 297.035 320.821 296.64 320.447C296.075 319.912 295.988 319.067 295.942 318.298C294.352 292.055 299.843 265.43 311.703 241.869C312.21 240.861 312.989 239.704 314.13 239.787ZM296.897 223.327C294.78 221.757 295.266 217.923 297.71 216.911C291.661 217.425 286.142 220.076 280.618 222.729C275.29 225.288 269.957 227.849 264.138 228.498C267.634 230.83 269.285 235.3 268.811 239.428C268.337 243.556 265.985 247.314 262.929 250.183C265.546 255.11 269.867 259.141 275.009 261.452C276.821 262.266 278.897 262.875 280.784 262.247C281.195 262.11 281.635 261.926 282.081 261.74C283.711 261.061 285.437 260.342 286.254 261.676C287.788 264.179 291.703 263.605 294.242 262.087C295.976 261.049 297.59 259.645 298.304 257.776C299.019 255.908 298.596 253.522 296.926 252.386C295.54 251.443 295.073 249.406 295.915 247.969C296.757 246.533 298.783 245.908 300.309 246.614C301.641 247.231 302.888 245.694 303.684 244.476C305.557 241.608 308.316 239.308 311.5 237.961C310.225 236.119 310.404 233.432 311.912 231.768C308.016 228.969 304.89 225.143 302.95 220.799C302.631 223.387 299.014 224.898 296.897 223.327ZM245.298 213.304L245.298 213.305L245.298 213.305L245.298 213.305L245.298 213.306L245.298 213.306L245.298 213.306C245.25 213.615 245.202 213.923 245.164 214.229C244.989 215.659 245.146 217.323 246.311 218.195C250.76 212.894 253.375 206.133 253.632 199.266C253.684 197.894 255.799 198.093 257.117 198.544C261.01 199.877 265.38 199.212 269.156 197.587C272.931 195.961 276.226 193.444 279.477 190.952C278.525 197.179 279.354 203.659 281.844 209.46L268.992 218.947C268.484 219.323 268.008 220.182 268.59 220.433C273.46 218.88 277.595 215.723 281.644 212.632L282.024 212.342C286.195 209.16 290.561 205.967 295.673 204.665C300.784 203.364 306.866 204.391 310.123 208.476C311.729 210.49 312.497 213.009 313.232 215.464L315.508 223.065C316.001 224.712 316.486 226.528 315.775 228.097C315.065 229.666 312.566 230.439 311.569 229.029L306.909 222.438C304.689 219.298 302.171 215.944 298.423 214.925C294.333 213.813 290.116 215.822 286.313 217.672C279.649 220.914 272.827 223.841 265.877 226.439C263.74 227.238 261.37 226.458 259.051 225.696C256.412 224.827 253.839 223.981 251.753 225.51C250.978 226.078 249.884 225.767 248.991 225.405C242.852 222.911 237.352 218.912 233.129 213.871L241.97 208.225C243.199 207.44 244.908 208.567 245.325 209.948C245.653 211.032 245.475 212.172 245.298 213.304ZM251.799 246.982C247.775 243.749 245.831 238.206 246.972 233.222C247.262 231.955 245.922 230.974 244.84 230.23C243.758 229.486 242.686 228.036 243.521 227.03C243.971 226.488 243.358 225.73 242.795 225.301L231.978 217.057C230.68 216.068 229.342 215.032 228.593 213.595C227.239 210.998 223.624 209.827 220.965 211.123C217.188 212.963 216.662 217.954 216.641 222.098C216.636 223.074 216.916 224.371 217.907 224.426C220.443 224.567 221.643 228.437 219.618 229.945C217.636 231.421 219.051 234.622 221.023 236.112C221.453 236.438 221.913 236.749 222.376 237.062L222.376 237.062C224.035 238.184 225.723 239.327 226.155 241.19C226.477 242.578 226.001 244.048 225.536 245.484C224.955 247.28 224.391 249.022 225.426 250.482C226.692 252.27 229.393 252.096 231.571 251.695C238.384 250.439 245.137 248.866 251.799 246.982ZM299.87 333.636C304.773 333.247 309.709 333.256 314.611 333.664C315.022 333.698 315.456 333.743 315.786 333.987C316.294 334.361 316.385 335.061 316.442 335.683C316.911 340.789 317.898 345.85 319.383 350.764C319.152 351.367 318.497 351.513 317.816 351.665C317.371 351.764 316.916 351.866 316.56 352.098C315.411 352.849 315.746 354.646 316.599 355.711C316.901 356.087 317.25 356.431 317.599 356.774L317.599 356.774L317.599 356.775L317.6 356.775L317.6 356.775L317.6 356.775L317.6 356.775C318.238 357.403 318.873 358.027 319.204 358.841C308.689 355.603 301.024 346.345 296.929 336.288C296.681 335.679 296.441 335 296.667 334.382C296.892 333.764 297.82 333.4 298.245 333.906C298.413 334.105 298.455 334.376 298.492 334.632L299.208 339.657C299.301 340.314 300.395 340.321 300.765 339.767C301.136 339.213 300.999 338.483 300.849 337.837L299.87 333.636ZM265.786 234.772C264.373 230.77 260.568 227.686 256.303 227.087C254.742 226.868 252.982 227.023 251.865 228.117C249.409 230.521 248.438 234.187 249.014 237.547C249.591 240.907 251.597 243.939 254.242 246.14C256.22 247.785 259.008 249.031 261.355 247.954C262.054 247.633 262.651 247.129 263.182 246.58C266.153 243.512 267.198 238.774 265.786 234.772ZM312.653 129.23C313.813 121.294 314.891 112.738 311.08 105.65C310.815 105.156 310.542 104.507 310.921 104.093L322.885 109.92C323.834 110.382 324.957 111.277 324.515 112.223C324 113.328 323.902 114.549 323.804 115.771L323.804 115.772L323.804 115.772L323.804 115.772L323.804 115.773C323.763 116.289 323.722 116.805 323.649 117.313C323.208 120.387 321.583 123.203 319.522 125.555C317.461 127.907 314.968 129.848 312.491 131.774C312.406 130.927 312.53 130.073 312.653 129.23ZM324.699 357.135C323.326 355.235 321.491 353.374 319.133 353.143C318.223 353.053 316.999 353.961 317.66 354.582C323.372 359.951 327.197 367.635 326.49 375.373C325.783 383.111 319.845 390.497 312.034 391.675C314.344 394.372 318.752 394.582 321.883 392.862C325.015 391.142 327.028 387.939 328.298 384.641C331.764 375.64 330.369 364.98 324.699 357.135ZM202.093 267.997C210.759 269.332 219.214 271.728 227.642 274.117L250.608 280.628C257.598 282.61 264.667 284.623 270.971 288.194C267.981 288.087 265.074 287.247 262.212 286.387C257.154 284.867 252.112 283.261 247.069 281.655L247.067 281.655C230.707 276.445 214.335 271.231 197.337 268.911C198.423 267.634 200.42 267.74 202.093 267.997ZM327.664 117.97C326.348 119.132 325.72 120.865 325.342 122.563C325.231 123.062 325.137 123.565 325.043 124.069L325.043 124.069C324.817 125.28 324.59 126.491 324.13 127.632C324.055 127.819 323.973 128.008 323.89 128.199C323.476 129.153 323.048 130.14 323.357 131.104C328.317 130.79 332.805 126.862 333.694 122.054C333.993 120.44 333.816 118.544 332.516 117.516C331.138 116.426 328.979 116.808 327.664 117.97ZM302.266 54.8484C302.837 56.441 301.976 58.3957 300.404 59.0753C298.831 59.7549 296.784 59.0577 295.976 57.5676C295.086 55.9272 295.899 53.6214 297.63 52.8732C299.361 52.125 301.638 53.0952 302.266 54.8484ZM243.216 56.3515C243.314 54.9035 242.389 53.4428 241.024 52.8901C239.287 52.1868 237.054 53.1221 236.366 54.8409C235.678 56.5598 236.665 58.7403 238.424 59.3889C240.49 60.1504 243.069 58.5153 243.216 56.3515ZM310.403 70.938C310.452 72.77 312.162 74.4029 314.026 74.3979C316.004 74.3925 317.766 72.5234 317.621 70.5847C317.484 68.757 315.698 67.2048 313.837 67.296C311.975 67.3871 310.354 69.106 310.403 70.938ZM257.265 73.0652C255.914 74.7258 252.963 74.73 251.607 73.0733C250.25 71.4166 250.884 68.5839 252.823 67.6404C254.762 66.6969 257.438 67.9188 257.955 69.9839C258.22 71.0417 257.958 72.2146 257.265 73.0652ZM246.304 100.744C245.16 102.501 244.916 104.794 245.665 106.746C245.943 107.469 246.356 108.155 246.944 108.669C248.83 110.318 252.054 109.621 253.642 107.692C255.229 105.763 255.448 103.04 254.98 100.602C254.793 99.6299 254.449 98.5922 253.605 98.0531C253.018 97.6779 252.279 97.6103 251.58 97.6594C249.464 97.8084 247.448 98.9869 246.304 100.744ZM284.284 118.725C283.66 118.099 283.249 117.291 282.994 116.452C282.047 113.339 283.38 109.693 286.126 107.885C287.368 107.067 288.969 106.613 290.374 107.113C292.097 107.727 293.044 109.575 293.371 111.348C293.839 113.885 293.276 116.728 291.376 118.506C289.476 120.283 286.118 120.568 284.284 118.725ZM236.702 153.722C236.766 152.154 236.895 150.589 237.09 149.032C237.158 148.493 237.633 148.029 238.182 147.966C238.437 151.806 238.555 155.655 238.538 159.503C236.81 158.258 236.617 155.826 236.702 153.722ZM300.873 137.052C300.354 134.717 298.57 132.693 296.294 131.854C295.914 131.714 295.931 131.115 296.251 130.869C296.571 130.622 297.026 130.647 297.421 130.742C299.586 131.262 300.925 133.349 301.914 135.312C302.176 135.831 302.434 136.436 302.203 136.97C301.973 137.503 300.999 137.618 300.873 137.052ZM261.298 477.268C261.07 476.763 260.492 476.522 259.964 476.333C251.698 473.37 242.921 471.788 234.122 471.675C232.868 471.659 231.403 471.778 230.713 472.808C231.384 473.363 232.349 473.363 233.227 473.35C242.542 473.212 251.882 474.912 260.53 478.32C261.051 478.525 261.526 477.773 261.298 477.268ZM264.282 124.218L264.282 124.218C263.663 124.596 263.044 124.975 262.499 125.45C261.473 126.345 260.731 127.793 261.262 129.037C261.917 130.574 264.023 130.864 265.691 130.568L265.762 130.555L265.836 130.542L265.901 130.53C266.429 130.432 266.968 130.332 267.481 130.47C268.062 130.627 268.574 131.229 268.374 131.789C268.234 132.182 267.815 132.401 267.421 132.552C264.977 133.492 261.927 133.142 260.114 131.278C258.301 129.413 258.255 125.998 260.326 124.414L268.417 118.225C268.335 120.117 267.364 121.94 265.877 123.144C265.38 123.547 264.831 123.882 264.282 124.218ZM296.862 139.119C297.364 141.913 296.636 144.784 295.604 147.435C291.163 158.845 280.675 167.788 268.557 170.497C263.68 171.588 258.3 171.652 253.96 169.208C249.62 166.764 246.83 161.268 248.733 156.721C250.967 151.384 257.882 149.888 263.751 149.767C264.265 149.756 264.784 149.748 265.306 149.741L265.308 149.741C270.754 149.661 276.568 149.576 280.509 146.011C281.912 144.743 282.924 143.147 283.937 141.548L283.937 141.547C284.792 140.199 285.648 138.849 286.74 137.691C289.128 135.16 293.806 133.95 295.905 136.718C296.432 137.414 296.708 138.265 296.862 139.119ZM294.368 143.377C294.973 141.103 294.707 137.831 292.342 137.487C291.462 137.36 290.585 137.747 289.855 138.245C288.037 139.485 286.872 141.352 285.701 143.23C284.771 144.72 283.838 146.217 282.571 147.412C279.262 150.531 274.312 151.083 269.745 151.471L260.968 152.219C258.729 152.409 256.409 152.624 254.461 153.725C250.801 155.792 249.532 161.078 251.865 164.536C254.388 168.275 259.648 169.087 264.191 168.655C278.195 167.324 290.808 156.759 294.368 143.377ZM299.37 318.178C298.893 318.232 298.398 318.1 298.015 317.817C297.756 317.625 297.548 317.367 297.418 317.075C296.995 316.125 297.566 314.876 298.57 314.557C299.573 314.237 300.78 314.92 301.004 315.933C301.228 316.946 300.417 318.06 299.37 318.178ZM315.605 318.307C315.259 318.008 314.796 317.845 314.336 317.859C313.205 317.892 312.296 319.147 312.634 320.209C312.973 321.271 314.448 321.792 315.396 321.184C316.345 320.577 316.456 319.04 315.605 318.307ZM281.473 237.463C280.298 236.132 280.398 233.898 281.689 232.675C282.979 231.452 285.255 231.435 286.564 232.639C287.962 233.924 287.98 236.38 286.602 237.686C285.224 238.992 282.729 238.883 281.473 237.463ZM266.089 248.554C265.82 249.265 265.797 250.063 266.026 250.787C266.679 252.845 269.573 253.824 271.375 252.597C273.178 251.369 273.263 248.361 271.532 247.037C269.801 245.714 266.856 246.535 266.089 248.554ZM234.96 243.319C234.555 244.637 233.271 245.647 231.874 245.747C229.812 245.895 227.886 243.883 228.161 241.869C228.435 239.855 230.832 238.413 232.782 239.089C234.455 239.67 235.474 241.649 234.96 243.319Z" fill="#64639C"/>
</g>
</svg>
